<svg width="215" height="108" viewBox="0 0 215 108" fill="none" xmlns="http://www.w3.org/2000/svg">
<path d="M2.976 72C5.024 73.536 7.456 74.304 10.272 74.304C11.936 74.304 13.568 74.112 15.168 73.728C16.832 73.408 18.336 72.768 19.68 71.808C21.024 70.784 22.112 69.312 22.944 67.392C21.024 67.84 19.552 67.744 18.528 67.104C17.504 66.4 16.992 64.96 16.992 62.784C17.056 62.016 17.152 61.248 17.28 60.48C17.408 59.648 17.536 58.784 17.664 57.888L23.52 27.744H30.912L31.776 23.424H24.288L26.496 13.248H22.272C19.008 15.872 15.552 18.176 11.904 20.16C8.32 22.144 4.736 23.712 1.152 24.864L0.768 27.744H6.72L3.84 41.856C3.648 43.2 3.328 44.928 2.88 47.04C2.432 49.152 1.984 51.36 1.536 53.664C1.152 55.968 0.8 58.176 0.48 60.288C0.16 62.336 0 64 0 65.28C0 68.224 0.992 70.464 2.976 72Z" fill="white"/>
<path fill-rule="evenodd" clip-rule="evenodd" d="M46.7752 73.824C47.7993 74.08 49.0153 74.208 50.4233 74.208C55.2233 74.208 59.4793 73.344 63.1913 71.616C66.9033 69.824 70.0072 67.36 72.5033 64.224C75.0632 61.088 76.9832 57.472 78.2632 53.376C79.6072 49.28 80.2793 44.896 80.2793 40.224C80.2793 36.384 79.7673 33.056 78.7432 30.24C77.7192 27.424 76.0872 25.248 73.8473 23.712C71.6712 22.176 68.7592 21.408 65.1112 21.408C61.7832 21.408 58.8713 22.176 56.3753 23.712C53.9432 25.248 51.9272 27.136 50.3273 29.376L51.4793 21.696L37.1753 23.424L28.3628 69.5059L28.3433 69.504C28.0872 70.72 27.8312 72 27.5753 73.344C27.3832 74.688 27.2232 75.968 27.0952 77.184C26.9032 78.4 26.7752 79.488 26.7113 80.448C26.5833 81.472 26.5192 82.304 26.5192 82.944C26.5192 86.08 27.2873 88.288 28.8232 89.568C30.3592 90.912 32.3433 91.584 34.7752 91.584C36.3112 91.584 37.8473 91.36 39.3833 90.912C40.9832 90.464 42.4233 89.856 43.7033 89.088C43.5112 88.384 43.3833 87.616 43.3193 86.784C43.2553 86.016 43.2233 85.216 43.2233 84.384C43.2233 82.272 43.3833 80.032 43.7033 77.664C43.953 76.1238 44.2028 74.6648 44.4526 73.287C45.3351 73.5201 46.1093 73.6991 46.7752 73.824ZM56.3753 66.336C55.0313 67.808 53.4313 68.544 51.5753 68.544C50.6792 68.544 49.6873 68.384 48.5993 68.064C47.5753 67.68 46.6473 67.136 45.8153 66.432L50.4233 40.896C50.7433 38.976 51.2553 37.056 51.9593 35.136C52.7273 33.216 53.7192 31.616 54.9352 30.336C56.2153 29.056 57.7833 28.416 59.6393 28.416C61.4313 28.416 62.6153 29.12 63.1913 30.528C63.7673 31.872 64.0552 33.504 64.0552 35.424C64.0552 37.856 63.8953 40.576 63.5753 43.584C63.3193 46.528 62.9033 49.472 62.3273 52.416C61.7513 55.296 60.9513 57.984 59.9272 60.48C58.9673 62.912 57.7833 64.864 56.3753 66.336Z" fill="white"/>
<path d="M92.2132 23.424L82.4212 74.112L100.085 72.384L104.693 44.544C105.077 42.24 105.557 40.128 106.133 38.208C106.709 36.288 107.349 34.656 108.053 33.312C108.757 31.904 109.557 30.816 110.453 30.048C111.413 29.28 112.437 28.896 113.525 28.896C114.677 28.896 115.445 29.28 115.829 30.048C116.277 30.816 116.501 31.776 116.501 32.928C116.501 34.592 116.149 36.512 115.445 38.688C114.805 40.8 113.941 42.528 112.853 43.872C113.429 44.512 114.229 44.96 115.253 45.216C116.277 45.472 117.301 45.6 118.325 45.6C121.909 45.6 124.821 44.352 127.061 41.856C129.301 39.296 130.421 36.096 130.421 32.256C130.421 28.864 129.461 26.24 127.541 24.384C125.685 22.464 122.933 21.504 119.285 21.504C115.957 21.504 113.045 22.336 110.549 24C108.117 25.6 106.197 27.904 104.789 30.912L106.229 21.696L92.2132 23.424Z" fill="white"/>
<path d="M133.945 72C135.993 73.536 138.425 74.304 141.241 74.304C142.905 74.304 144.537 74.112 146.137 73.728C147.801 73.408 149.305 72.768 150.649 71.808C151.993 70.784 153.081 69.312 153.913 67.392C151.993 67.84 150.521 67.744 149.497 67.104C148.473 66.4 147.961 64.96 147.961 62.784C148.025 62.016 148.121 61.248 148.249 60.48C148.377 59.648 148.505 58.784 148.633 57.888L154.489 27.744H161.881L162.745 23.424H155.257L157.465 13.248H153.241C149.977 15.872 146.521 18.176 142.873 20.16C139.289 22.144 135.705 23.712 132.121 24.864L131.737 27.744H137.689L134.809 41.856C134.617 43.2 134.297 44.928 133.849 47.04C133.401 49.152 132.953 51.36 132.505 53.664C132.121 55.968 131.769 58.176 131.449 60.288C131.129 62.336 130.969 64 130.969 65.28C130.969 68.224 131.961 70.464 133.945 72Z" fill="white"/>
<path fill-rule="evenodd" clip-rule="evenodd" d="M166.416 72C168.656 73.536 171.536 74.304 175.056 74.304C178.064 74.304 180.752 73.792 183.12 72.768C185.488 71.808 187.504 70.496 189.168 68.832C189.744 70.688 190.864 72.064 192.528 72.96C194.192 73.856 196.016 74.304 198 74.304C199.536 74.304 201.04 74.08 202.512 73.632C204.048 73.184 205.392 72.48 206.544 71.52C207.696 70.56 208.528 69.312 209.04 67.776C207.568 67.712 206.48 67.232 205.776 66.336C205.136 65.376 204.816 64.32 204.816 63.168C204.816 62.592 204.88 61.92 205.008 61.152C205.136 60.384 205.232 59.712 205.296 59.136C206.64 53.184 207.824 47.424 208.848 41.856C209.861 36.6695 210.819 31.6774 211.722 26.8796L211.728 26.88C212.368 23.936 212.912 21.216 213.36 18.72C213.808 16.224 214.16 14.048 214.416 12.192C214.736 10.336 214.896 8.96 214.896 8.064C214.96 4.992 214.16 2.88 212.496 1.72799C210.832 0.575998 208.88 0 206.64 0C204.976 0 203.312 0.223999 201.648 0.671997C200.048 1.056 198.672 1.6 197.52 2.304C197.648 3.2 197.712 4.096 197.712 4.992C197.776 5.888 197.808 6.848 197.808 7.872C197.68 10.368 197.392 13.152 196.944 16.224C196.648 18.2119 196.31 20.2836 195.93 22.4392C195.068 22.1435 194.094 21.9277 193.008 21.792C191.536 21.6 190.032 21.504 188.496 21.504C184.464 21.504 180.688 22.368 177.168 24.096C173.712 25.824 170.672 28.256 168.048 31.392C165.488 34.464 163.472 38.08 162 42.24C160.592 46.336 159.888 50.784 159.888 55.584C159.888 59.36 160.4 62.656 161.424 65.472C162.512 68.224 164.176 70.4 166.416 72ZM185.232 66.24C184.08 67.584 182.544 68.256 180.624 68.256C178.768 68.256 177.552 67.456 176.976 65.856C176.4 64.192 176.112 62.368 176.112 60.384C176.112 57.952 176.24 55.264 176.496 52.32C176.752 49.312 177.168 46.368 177.744 43.488C178.384 40.544 179.184 37.856 180.144 35.424C181.168 32.928 182.384 30.944 183.792 29.472C185.2 28 186.832 27.264 188.688 27.264C189.456 27.264 190.32 27.424 191.28 27.744C192.304 28.064 193.296 28.576 194.256 29.28L189.648 55.392C189.328 57.248 188.816 59.168 188.112 61.152C187.408 63.136 186.448 64.832 185.232 66.24Z" fill="white"/>
<path d="M62.976 81.656L57.504 107.384H61.728L64.08 96.296C64.528 94.184 65.104 92.392 65.808 90.92C66.512 89.448 67.28 88.264 68.112 87.368C68.944 86.44 69.792 85.768 70.656 85.352C71.552 84.936 72.384 84.728 73.152 84.728C74.272 84.728 75.072 85.032 75.552 85.64C76.032 86.216 76.272 87.032 76.272 88.088C76.272 88.472 76.24 88.92 76.176 89.432C76.112 89.912 76 90.52 75.84 91.256L72.432 107.384H76.656L79.104 95.768C79.52 93.848 80.064 92.2 80.736 90.824C81.408 89.416 82.16 88.264 82.992 87.368C83.824 86.472 84.672 85.816 85.536 85.4C86.4 84.952 87.216 84.728 87.984 84.728C89.104 84.728 89.92 85.016 90.432 85.592C90.976 86.168 91.248 86.936 91.248 87.896C91.248 88.376 91.216 88.872 91.152 89.384C91.088 89.896 90.976 90.52 90.816 91.256L87.36 107.384H91.632L94.944 91.736C95.104 91 95.232 90.312 95.328 89.672C95.424 89 95.472 88.28 95.472 87.512C95.472 85.464 94.928 83.896 93.84 82.808C92.752 81.72 91.216 81.176 89.232 81.176C87.92 81.176 86.72 81.464 85.632 82.04C84.544 82.584 83.552 83.288 82.656 84.152C81.792 85.016 81.04 85.928 80.4 86.888H80.208C80.016 85.096 79.44 83.704 78.48 82.712C77.552 81.688 76.208 81.176 74.448 81.176C73.136 81.176 71.952 81.448 70.896 81.992C69.872 82.536 68.96 83.208 68.16 84.008C67.392 84.808 66.72 85.608 66.144 86.408H65.904L66.432 81.656H62.976Z" fill="white"/>
<path fill-rule="evenodd" clip-rule="evenodd" d="M104.928 106.568C106.368 107.368 108.08 107.768 110.064 107.768C111.76 107.768 113.296 107.448 114.672 106.808C116.048 106.168 117.248 105.304 118.272 104.216C119.296 103.128 120.144 101.88 120.816 100.472C121.52 99.032 122.048 97.528 122.4 95.96C122.752 94.392 122.928 92.824 122.928 91.256C122.928 89.208 122.544 87.448 121.776 85.976C121.008 84.472 119.904 83.32 118.464 82.52C117.056 81.72 115.344 81.32 113.328 81.32C111.632 81.32 110.096 81.64 108.72 82.28C107.344 82.92 106.144 83.8 105.12 84.92C104.096 86.008 103.232 87.256 102.528 88.664C101.856 90.072 101.344 91.576 100.992 93.176C100.64 94.744 100.464 96.312 100.464 97.88C100.464 99.896 100.848 101.656 101.616 103.16C102.384 104.632 103.488 105.768 104.928 106.568ZM112.896 103.688C112.096 104.072 111.232 104.264 110.304 104.264C108.544 104.264 107.168 103.72 106.176 102.632C105.216 101.544 104.736 100.008 104.736 98.024C104.736 96.584 104.864 95.208 105.12 93.896C105.376 92.584 105.744 91.384 106.224 90.296C106.736 89.176 107.344 88.216 108.048 87.416C108.752 86.584 109.552 85.944 110.448 85.496C111.344 85.048 112.32 84.824 113.376 84.824C114.656 84.824 115.68 85.128 116.448 85.736C117.216 86.312 117.76 87.064 118.08 87.992C118.432 88.888 118.608 89.816 118.608 90.776C118.608 92.472 118.464 94.024 118.176 95.432C117.888 96.84 117.488 98.104 116.976 99.224C116.496 100.312 115.904 101.24 115.2 102.008C114.496 102.744 113.728 103.304 112.896 103.688Z" fill="white"/>
<path d="M126.573 81.656L129.549 107.384H135.069L148.989 81.656H144.477L136.893 95.816C136.541 96.488 136.109 97.336 135.597 98.36L134.157 101.432C133.677 102.456 133.261 103.368 132.909 104.168H132.765C132.765 103.72 132.733 103.016 132.669 102.056C132.637 101.064 132.573 100.008 132.477 98.888C132.413 97.768 132.333 96.792 132.237 95.96L130.797 81.656H126.573Z" fill="white"/>
<path d="M153.492 81.656L148.02 107.384H152.244L157.716 81.656H153.492Z" fill="white"/>
<path d="M155.22 76.808C155.668 77.192 156.228 77.384 156.9 77.384C157.572 77.384 158.196 77.112 158.772 76.568C159.348 75.992 159.636 75.208 159.636 74.216C159.636 73.544 159.444 73.016 159.06 72.632C158.708 72.248 158.164 72.056 157.428 72.056C156.82 72.056 156.308 72.2 155.892 72.488C155.476 72.776 155.156 73.16 154.932 73.64C154.708 74.088 154.596 74.584 154.596 75.128C154.596 75.832 154.804 76.392 155.22 76.808Z" fill="white"/>
<path fill-rule="evenodd" clip-rule="evenodd" d="M165.579 106.712C166.987 107.48 168.683 107.864 170.667 107.864C172.299 107.864 173.691 107.688 174.843 107.336C176.027 106.984 177.227 106.536 178.443 105.992V102.392C177.163 103 175.979 103.48 174.891 103.832C173.803 104.184 172.651 104.36 171.435 104.36C169.483 104.36 168.027 103.8 167.067 102.68C166.107 101.528 165.627 99.976 165.627 98.024V97.16C165.659 96.84 165.691 96.536 165.723 96.248H166.539C169.195 96.248 171.467 96.024 173.355 95.576C175.243 95.096 176.795 94.44 178.011 93.608C179.227 92.776 180.123 91.816 180.699 90.728C181.275 89.608 181.563 88.424 181.563 87.176C181.563 85.288 180.939 83.816 179.691 82.76C178.475 81.704 176.651 81.176 174.219 81.176C172.235 81.176 170.443 81.672 168.843 82.664C167.275 83.656 165.931 84.984 164.811 86.648C163.691 88.28 162.827 90.104 162.219 92.12C161.643 94.104 161.355 96.12 161.355 98.168C161.355 100.152 161.707 101.88 162.411 103.352C163.147 104.792 164.203 105.912 165.579 106.712ZM172.011 92.36C170.379 92.68 168.603 92.84 166.683 92.84H166.347C166.827 91.112 167.467 89.64 168.267 88.424C169.067 87.208 169.963 86.28 170.955 85.64C171.947 85 172.955 84.68 173.979 84.68C175.163 84.68 176.027 84.952 176.571 85.496C177.147 86.008 177.435 86.68 177.435 87.512C177.435 88.824 176.939 89.88 175.947 90.68C174.955 91.448 173.643 92.008 172.011 92.36Z" fill="white"/>
<path d="M186.316 107.384C187.5 107.704 188.876 107.864 190.444 107.864C192.46 107.864 194.22 107.576 195.724 107C197.228 106.392 198.38 105.496 199.18 104.312C200.012 103.128 200.428 101.672 200.428 99.944C200.428 98.728 200.172 97.704 199.66 96.872C199.18 96.04 198.508 95.304 197.644 94.664C196.78 94.024 195.804 93.384 194.716 92.744C193.596 92.104 192.716 91.56 192.076 91.112C191.468 90.632 191.052 90.168 190.828 89.72C190.604 89.272 190.492 88.776 190.492 88.232C190.492 87.208 190.892 86.376 191.692 85.736C192.524 85.064 193.628 84.728 195.004 84.728C196.412 84.728 197.628 84.904 198.652 85.256C199.676 85.576 200.604 85.928 201.436 86.312L202.78 82.952C201.82 82.504 200.668 82.104 199.324 81.752C198.012 81.368 196.572 81.176 195.004 81.176C193.244 81.176 191.708 81.48 190.396 82.088C189.084 82.696 188.06 83.544 187.324 84.632C186.62 85.72 186.268 87 186.268 88.472C186.268 89.56 186.476 90.52 186.892 91.352C187.308 92.184 187.916 92.952 188.716 93.656C189.548 94.328 190.572 95.016 191.788 95.72C192.908 96.328 193.772 96.872 194.38 97.352C195.02 97.8 195.468 98.264 195.724 98.744C195.98 99.192 196.108 99.736 196.108 100.376C196.108 101.176 195.884 101.88 195.436 102.488C194.988 103.096 194.332 103.576 193.468 103.928C192.636 104.248 191.58 104.408 190.3 104.408C188.956 104.408 187.644 104.2 186.364 103.784C185.116 103.336 184.076 102.856 183.244 102.344V106.232C184.14 106.712 185.164 107.096 186.316 107.384Z" fill="white"/>
</svg>
